<?xml version="1.0" standalone="no"?>
<!DOCTYPE svg PUBLIC "-//W3C//DTD SVG 20010904//EN"
 "http://www.w3.org/TR/2001/REC-SVG-20010904/DTD/svg10.dtd">
<svg version="1.0" xmlns="http://www.w3.org/2000/svg"
 width="1180.000000pt" height="1180.000000pt" viewBox="0 0 1180.000000 1180.000000"
 preserveAspectRatio="xMidYMid meet">
<metadata>
Created by potrace 1.11, written by Peter Selinger 2001-2013
</metadata>
<g transform="translate(0.000000,1180.000000) scale(0.100000,-0.100000)"
fill="#000000" stroke="none">
<path d="M8440 8707 c-3 -3 -31 -8 -63 -11 -77 -9 -236 -57 -317 -96 -79 -39
-237 -143 -305 -202 -78 -68 -173 -165 -267 -273 -48 -55 -137 -147 -199 -205
-61 -58 -129 -121 -149 -140 -40 -38 -82 -77 -229 -210 -52 -47 -104 -94 -115
-105 -27 -26 -261 -233 -348 -309 -37 -32 -72 -56 -78 -54 -16 5 -68 161 -85
253 -22 119 -12 433 16 519 15 47 5 40 -35 -27 -46 -77 -46 -77 -132 -206 -81
-121 -76 -119 -189 -78 -64 22 -118 34 -199 42 -27 3 -121 -8 -179 -20 -38 -8
-127 -43 -155 -61 -13 -9 -29 -13 -36 -11 -7 3 -77 87 -155 187 -79 99 -145
180 -147 178 -2 -2 15 -40 36 -84 62 -125 84 -226 77 -359 -6 -114 -21 -174
-75 -284 -31 -62 -42 -69 -73 -44 -91 72 -390 376 -530 537 -19 22 -47 54 -64
71 -16 18 -61 67 -100 110 -38 44 -81 90 -93 105 -13 14 -47 52 -75 84 -29 33
-57 64 -62 70 -6 6 -44 49 -85 96 -224 256 -370 367 -575 435 -126 43 -230 59
-385 59 -87 0 -238 -10 -262 -18 -7 -3 -35 -7 -63 -10 -27 -3 -75 -10 -105
-16 -30 -6 -66 -13 -80 -16 -138 -25 -423 -110 -630 -187 -330 -123 -467 -173
-640 -232 -185 -63 -449 -146 -590 -186 -36 -10 -90 -25 -120 -34 -30 -8 -70
-18 -89 -21 -18 -3 -41 -7 -50 -9 -15 -3 -68 -9 -171 -21 -19 -2 -78 -6 -131
-10 -54 -3 -105 -7 -115 -8 -25 -4 -29 -23 -7 -29 18 -5 90 -27 293 -87 789
-234 1058 -399 1126 -689 38 -164 -52 -411 -195 -539 -14 -13 -44 -40 -66 -61
-62 -59 -231 -198 -257 -212 -52 -28 6 -17 133 25 137 46 267 81 334 92 20 3
47 8 59 10 11 3 82 7 156 9 401 11 633 -117 710 -390 28 -102 31 -283 5 -399
-3 -12 -7 -33 -9 -47 -25 -153 -139 -465 -263 -714 -30 -60 -59 -121 -64 -135
l-10 -24 23 19 c13 11 25 22 28 25 7 7 109 74 150 98 190 111 485 223 710 268
71 14 191 34 235 39 28 4 61 8 74 10 140 23 577 22 766 -1 248 -31 451 -110
667 -260 98 -68 129 -95 259 -224 98 -98 193 -209 249 -290 13 -19 27 -37 30
-40 3 -3 10 -12 15 -21 6 -9 24 -36 40 -60 17 -24 32 -48 35 -54 5 -9 38 -65
94 -158 25 -43 138 -267 171 -342 95 -214 203 -531 215 -630 0 -5 21 60 46
145 101 346 247 690 405 952 53 89 192 294 208 308 4 3 26 30 51 60 270 329
630 545 1000 597 108 16 470 8 580 -12 14 -2 41 -6 60 -9 60 -7 169 -27 330
-61 85 -17 384 -98 430 -116 14 -5 34 -11 45 -13 57 -12 459 -154 630 -222 20
-8 20 -8 0 21 -17 27 -57 102 -60 115 -1 3 -11 26 -23 52 -112 249 -156 624
-103 878 23 109 33 140 77 238 85 187 251 328 445 378 96 25 99 25 222 28 193
5 345 -26 692 -139 110 -36 206 -65 213 -65 23 0 12 22 -51 99 -155 186 -225
295 -266 418 -28 83 -32 106 -36 208 -8 219 98 414 295 543 97 64 278 149 530
250 326 131 344 139 348 151 2 6 -9 12 -25 12 -15 1 -48 2 -73 4 -25 1 -99 6
-165 9 -66 4 -136 9 -155 11 -31 4 -102 11 -205 19 -62 6 -185 24 -344 51
-197 34 -591 152 -738 220 -17 8 -34 15 -37 15 -7 0 -247 107 -376 168 -144
68 -198 92 -205 92 -3 0 -30 11 -58 23 -126 57 -338 120 -532 159 -94 18 -433
38 -445 25z"/>
</g>
</svg>
